<svg width="32" height="32" viewBox="0 0 32 32" fill="none" xmlns="http://www.w3.org/2000/svg">
<path fill-rule="evenodd" clip-rule="evenodd" d="M21.1564 4.94737V10.8421H27.0511V4.94737H21.1564ZM19.6827 2C18.7985 2 18.209 2.58947 18.209 3.47368V12.3158C18.209 13.2 18.7985 13.7895 19.6827 13.7895H28.5248C29.409 13.7895 29.9985 13.2 29.9985 12.3158V3.47368C29.9985 2.58947 29.409 2 28.5248 2H19.6827Z" fill="#397BFF"/>
<path fill-rule="evenodd" clip-rule="evenodd" d="M21.1564 21.1583V27.053H27.0511V21.1583H21.1564ZM19.6827 18.2109C18.7985 18.2109 18.209 18.8004 18.209 19.6846V28.5267C18.209 29.4109 18.7985 30.0004 19.6827 30.0004H28.5248C29.409 30.0004 29.9985 29.4109 29.9985 28.5267V19.6846C29.9985 18.8004 29.409 18.2109 28.5248 18.2109H19.6827Z" fill="#397BFF"/>
<path fill-rule="evenodd" clip-rule="evenodd" d="M4.94737 4.94737V10.8421H10.8421V4.94737H4.94737ZM3.47368 2C2.58947 2 2 2.58947 2 3.47368V12.3158C2 13.2 2.58947 13.7895 3.47368 13.7895H12.3158C13.2 13.7895 13.7895 13.2 13.7895 12.3158V3.47368C13.7895 2.58947 13.2 2 12.3158 2H3.47368Z" fill="#397BFF"/>
<path fill-rule="evenodd" clip-rule="evenodd" d="M4.94737 21.1583V27.053H10.8421V21.1583H4.94737ZM3.47368 18.2109C2.58947 18.2109 2 18.8004 2 19.6846V28.5267C2 29.4109 2.58947 30.0004 3.47368 30.0004H12.3158C13.2 30.0004 13.7895 29.4109 13.7895 28.5267V19.6846C13.7895 18.8004 13.2 18.2109 12.3158 18.2109H3.47368Z" fill="#397BFF"/>
</svg>
