<svg width="32" height="32" viewBox="0 0 32 32" fill="none" xmlns="http://www.w3.org/2000/svg">
<path d="M14.15 22.25H16.85V14.15H14.15V22.25ZM15.5 11.45C15.905 11.45 16.175 11.315 16.445 11.045C16.715 10.775 16.85 10.505 16.85 10.1C16.85 9.695 16.715 9.425 16.445 9.155C16.175 8.885 15.905 8.75 15.5 8.75C15.095 8.75 14.825 8.885 14.555 9.155C14.285 9.425 14.15 9.695 14.15 10.1C14.15 10.505 14.285 10.775 14.555 11.045C14.825 11.315 15.095 11.45 15.5 11.45ZM15.5 29C13.61 29 11.855 28.595 10.235 27.92C8.615 27.245 7.13 26.3 5.915 25.085C4.7 23.87 3.755 22.385 3.08 20.765C2.405 19.145 2 17.39 2 15.5C2 13.61 2.405 11.855 3.08 10.235C3.755 8.615 4.7 7.13 5.915 5.915C7.13 4.7 8.615 3.755 10.235 3.08C11.855 2.405 13.61 2 15.5 2C17.39 2 19.145 2.405 20.765 3.08C22.385 3.755 23.87 4.7 25.085 5.915C26.3 7.13 27.245 8.615 27.92 10.235C28.595 11.855 29 13.61 29 15.5C29 17.39 28.595 19.145 27.92 20.765C27.245 22.385 26.3 23.87 25.085 25.085C23.87 26.3 22.385 27.245 20.765 27.92C19.145 28.595 17.39 29 15.5 29ZM15.5 26.3C18.47 26.3 21.035 25.22 23.195 23.195C25.355 21.17 26.3 18.605 26.3 15.5C26.3 12.395 25.22 9.965 23.195 7.805C21.035 5.78 18.47 4.7 15.5 4.7C12.53 4.7 9.965 5.78 7.805 7.805C5.645 9.83 4.7 12.53 4.7 15.5C4.7 18.47 5.78 21.035 7.805 23.195C9.965 25.22 12.53 26.3 15.5 26.3Z" fill="white"/>
</svg>
