<svg width="32" height="32" viewBox="0 0 32 32" fill="none" xmlns="http://www.w3.org/2000/svg">
<path fill-rule="evenodd" clip-rule="evenodd" d="M20 9V13H24V9H20ZM19 7C18.4477 7 18 7.44772 18 8V14C18 14.5523 18.4477 15 19 15H25C25.5523 15 26 14.5523 26 14V8C26 7.44772 25.5523 7 25 7H19Z" fill="#8D60D4"/>
<path fill-rule="evenodd" clip-rule="evenodd" d="M20 20V24H24V20H20ZM19 18C18.4477 18 18 18.4477 18 19V25C18 25.5523 18.4477 26 19 26H25C25.5523 26 26 25.5523 26 25V19C26 18.4477 25.5523 18 25 18H19Z" fill="#8D60D4"/>
<path fill-rule="evenodd" clip-rule="evenodd" d="M9 9V13H13V9H9ZM8 7C7.44772 7 7 7.44772 7 8V14C7 14.5523 7.44772 15 8 15H14C14.5523 15 15 14.5523 15 14V8C15 7.44772 14.5523 7 14 7H8Z" fill="#8D60D4"/>
<path d="M12 18L12 21L15 21L15 23L12 23L12 26L10 26L10 23L7 23L7 21L10 21L10 18L12 18Z" fill="#824ED6"/>
</svg>
