<svg width="32" height="32" viewBox="0 0 32 32" fill="none" xmlns="http://www.w3.org/2000/svg">
<path fill-rule="evenodd" clip-rule="evenodd" d="M21.1583 4.94737V10.8421H27.053V4.94737H21.1583ZM19.6846 2C18.8004 2 18.2109 2.58947 18.2109 3.47368V12.3158C18.2109 13.2 18.8004 13.7895 19.6846 13.7895H28.5267C29.4109 13.7895 30.0004 13.2 30.0004 12.3158V3.47368C30.0004 2.58947 29.4109 2 28.5267 2H19.6846Z" fill="#8D60D4"/>
<path fill-rule="evenodd" clip-rule="evenodd" d="M21.1583 21.1583V27.053H27.053V21.1583H21.1583ZM19.6846 18.2109C18.8004 18.2109 18.2109 18.8004 18.2109 19.6846V28.5267C18.2109 29.4109 18.8004 30.0004 19.6846 30.0004H28.5267C29.4109 30.0004 30.0004 29.4109 30.0004 28.5267V19.6846C30.0004 18.8004 29.4109 18.2109 28.5267 18.2109H19.6846Z" fill="#8D60D4"/>
<path fill-rule="evenodd" clip-rule="evenodd" d="M4.94737 4.94737V10.8421H10.8421V4.94737H4.94737ZM3.47368 2C2.58947 2 2 2.58947 2 3.47368V12.3158C2 13.2 2.58947 13.7895 3.47368 13.7895H12.3158C13.2 13.7895 13.7895 13.2 13.7895 12.3158V3.47368C13.7895 2.58947 13.2 2 12.3158 2H3.47368Z" fill="#8D60D4"/>
<path d="M9.36842 18.2109V22.632H13.7895V25.5794H9.36842V30.0004H6.42105V25.5794H2V22.632H6.42105V18.2109H9.36842Z" fill="#824ED6"/>
</svg>
