<svg width="32" height="32" viewBox="0 0 32 32" fill="none" xmlns="http://www.w3.org/2000/svg">
<rect width="32" height="32" fill="white"/>
<path d="M20 25C19.4477 25 19 24.5523 19 24V22H15V12H13V14C13 14.5523 12.5523 15 12 15H7C6.44772 15 6 14.5523 6 14V8C6 7.44772 6.44772 7 7 7H12C12.5523 7 13 7.44772 13 8V10H19V8C19 7.44772 19.4477 7 20 7H25C25.5523 7 26 7.44772 26 8V14C26 14.5523 25.5523 15 25 15H20C19.4477 15 19 14.5523 19 14V12H17V20H19V18C19 17.4477 19.4477 17 20 17H25C25.5523 17 26 17.4477 26 18V24C26 24.5523 25.5523 25 25 25H20ZM21 13H24V9H21V13ZM21 23H24V19H21V23ZM8 13H11V9H8V13Z" fill="#F96A4D"/>
</svg>
