<svg width="32" height="32" viewBox="0 0 32 32" fill="none" xmlns="http://www.w3.org/2000/svg">
<path d="M21.6 29C20.76 29 20.2 28.4222 20.2 27.5556V24.6667H14.6V10.2222H11.8V13.1111C11.8 13.9778 11.24 14.5556 10.4 14.5556H3.4C2.56 14.5556 2 13.9778 2 13.1111V4.44444C2 3.57778 2.56 3 3.4 3H10.4C11.24 3 11.8 3.57778 11.8 4.44444V7.33333H20.2V4.44444C20.2 3.57778 20.76 3 21.6 3H28.6C29.44 3 30 3.57778 30 4.44444V13.1111C30 13.9778 29.44 14.5556 28.6 14.5556H21.6C20.76 14.5556 20.2 13.9778 20.2 13.1111V10.2222H17.4V21.7778H20.2V18.8889C20.2 18.0222 20.76 17.4444 21.6 17.4444H28.6C29.44 17.4444 30 18.0222 30 18.8889V27.5556C30 28.4222 29.44 29 28.6 29H21.6ZM23 11.6667H27.2V5.88889H23V11.6667ZM23 26.1111H27.2V20.3333H23V26.1111ZM4.8 11.6667H9V5.88889H4.8V11.6667Z" fill="#FF9505"/>
</svg>
