<svg width="32" height="32" viewBox="0 0 32 32" fill="none" xmlns="http://www.w3.org/2000/svg">
<path d="M14.5556 26.6105V16.1474L5.88889 11.4316V21.8947L14.5556 26.6105ZM17.4444 26.6105L26.1111 21.8947V11.4316L21.7778 13.7895L17.4444 16.1474V26.6105ZM16 13.7895L24.5222 9.22105L16 4.65263L7.47778 9.22105L16 13.7895ZM4.44444 24.2526C4.01111 23.9579 3.57778 23.6632 3.43333 23.2211C3.14444 22.9263 3 22.4842 3 21.8947V10.1053C3 9.66316 3.14444 9.22105 3.43333 8.77895C3.72222 8.33684 4.01111 8.0421 4.44444 7.74737L14.5556 2.29474C14.9889 2.14737 15.4222 2 16 2C16.5778 2 17.0111 2.14737 17.4444 2.29474L27.5556 7.74737C27.9889 8.0421 28.4222 8.33684 28.5667 8.77895C28.8556 9.22105 29 9.66316 29 10.1053V21.8947C29 22.3368 28.8556 22.7789 28.5667 23.2211C28.2778 23.6632 27.9889 23.9579 27.5556 24.2526L17.4444 29.7053C17.0111 30 16.5778 30 16 30C15.4222 30 14.9889 29.8526 14.5556 29.7053L4.44444 24.2526Z" fill="#6AD9EF"/>
</svg>
