<svg width="32" height="32" viewBox="0 0 32 32" fill="none" xmlns="http://www.w3.org/2000/svg">
<path d="M13.0534 30C12.5458 30 12.1187 29.6197 12.0601 29.1155L11.6444 25.5407C11.3333 25.437 11.0222 25.3333 10.8148 25.1259C10.5037 24.9185 10.2963 24.8148 9.98518 24.6074L6.65117 26.0244C6.1863 26.2219 5.6471 26.0418 5.39429 25.6045L2.43805 20.491C2.18726 20.0572 2.29624 19.5048 2.69298 19.1988L5.62963 16.9333C5.62963 16.7259 5.62963 16.6222 5.62963 16.4148V15.4815C5.62963 15.3778 5.62963 15.1704 5.62963 14.963L2.71555 12.7982C2.30776 12.4953 2.19189 11.9348 2.44614 11.495L5.39429 6.39546C5.6471 5.95818 6.1863 5.77807 6.65117 5.97563L9.98518 7.39259C10.1926 7.18518 10.5037 7.08148 10.8148 6.87407C11.1259 6.66667 11.3333 6.56296 11.6444 6.45926L12.0601 2.8845C12.1187 2.3803 12.5458 2 13.0534 2H18.9466C19.4542 2 19.8813 2.3803 19.9399 2.8845L20.3556 6.45926C20.6667 6.56296 20.9778 6.66667 21.1852 6.87407C21.4963 7.08148 21.7037 7.18518 22.0148 7.39259L25.3488 5.97563C25.8137 5.77807 26.3529 5.95818 26.6057 6.39546L29.562 11.509C29.8127 11.9428 29.7038 12.4952 29.307 12.8012L26.3704 15.0667C26.3704 15.2741 26.3704 15.3778 26.3704 15.5852V16.5185C26.3704 16.6222 26.3704 16.8296 26.2667 17.037L29.1892 19.2081C29.5934 19.5083 29.7113 20.0622 29.4644 20.5011L26.6018 25.5902C26.352 26.0343 25.8081 26.2196 25.3391 26.0202L22.0148 24.6074C21.8074 24.8148 21.4963 24.9185 21.1852 25.1259C20.8741 25.3333 20.6667 25.437 20.3556 25.5407L19.9399 29.1155C19.8813 29.6197 19.4542 30 18.9466 30H13.0534ZM14.6519 27.2H17.4519L17.9704 23.4667C18.6963 23.2593 19.3185 23.0519 19.9407 22.637C20.563 22.3259 21.0815 21.8074 21.6 21.2889L25.0222 22.7407L26.3704 20.3556L23.363 18.0741C23.4667 17.763 23.5704 17.4519 23.5704 17.037C23.5704 16.7259 23.6741 16.3111 23.6741 15.8963C23.6741 15.4815 23.6741 15.1704 23.5704 14.7556C23.5704 14.4444 23.4667 14.0296 23.363 13.7185L26.3704 11.437L25.0222 9.05185L21.6 10.5037C21.0815 9.98518 20.563 9.46667 19.9407 9.15556C19.3185 8.84444 18.6963 8.53333 17.9704 8.32593L17.5556 4.59259H14.7556L14.237 8.32593C13.5111 8.53333 12.8889 8.74074 12.2667 9.15556C11.6444 9.46667 11.1259 9.98518 10.6074 10.5037L6.97778 9.25926L5.62963 11.5407L8.63704 13.8222C8.53333 14.1333 8.42963 14.5481 8.42963 14.8593C8.42963 15.1704 8.32593 15.5852 8.32593 16C8.32593 16.4148 8.32593 16.7259 8.42963 17.037C8.42963 17.3481 8.53333 17.763 8.63704 18.0741L5.62963 20.4593L6.97778 22.8444L10.4 21.3926C10.9185 21.9111 11.437 22.4296 12.0593 22.7407C12.6815 23.0519 13.3037 23.363 14.0296 23.5704L14.6519 27.2Z" fill="white"/>
</svg>
