<svg width="32" height="32" viewBox="0 0 32 32" fill="none" xmlns="http://www.w3.org/2000/svg">
<path d="M15 23.66V16.6098L9 13.452V20.5022L15 23.66ZM17 23.66L23 20.5022V13.452L20 15.0309L17 16.6098V23.66ZM16 15.0422L21.925 11.9299L16 8.81746L10.075 11.9299L16 15.0422ZM8 22.0925C7.68333 21.9259 7.4375 21.7063 7.2625 21.4336C7.0875 21.161 7 20.8581 7 20.5249V12.4751C7 12.1419 7.0875 11.839 7.2625 11.5664C7.4375 11.2937 7.68333 11.0741 8 10.9075L15 7.2499C15.3167 7.0833 15.65 7 16 7C16.35 7 16.6833 7.0833 17 7.2499L24 10.9075C24.3167 11.0741 24.5625 11.2937 24.7375 11.5664C24.9125 11.839 25 12.1419 25 12.4751V20.5249C25 20.8581 24.9125 21.161 24.7375 21.4336C24.5625 21.7063 24.3167 21.9259 24 22.0925L17 25.7501C16.6833 25.9167 16.35 26 16 26C15.65 26 15.3167 25.9167 15 25.7501L8 22.0925Z" fill="#6AD9EF"/>
</svg>
