<svg width="32" height="32" viewBox="0 0 32 32" fill="none" xmlns="http://www.w3.org/2000/svg">
<path d="M7.86269 16.8326C8.05514 16.4993 8.53627 16.4993 8.72872 16.8326L15.1584 27.9692C15.3508 28.3025 15.1103 28.7192 14.7254 28.7192H1.86603C1.48113 28.7192 1.24056 28.3025 1.43301 27.9692L7.86269 16.8326Z" fill="#2FBC7B"/>
<path d="M23.7295 16.8326C23.922 16.4993 24.4031 16.4993 24.5956 16.8326L31.0252 27.9692C31.2177 28.3025 30.9771 28.7192 30.5922 28.7192H17.7329C17.348 28.7192 17.1074 28.3025 17.2999 27.9692L23.7295 16.8326Z" fill="#2FBC7B"/>
<path d="M15.0623 2.78674C15.2528 2.44384 15.7459 2.44384 15.9365 2.78674L21.9249 13.566C22.1101 13.8993 21.8691 14.3088 21.4879 14.3088H9.51089C9.12965 14.3088 8.88866 13.8993 9.07381 13.566L15.0623 2.78674Z" fill="#2FBC7B"/>
</svg>
