<svg width="32" height="32" viewBox="0 0 32 32" fill="none" xmlns="http://www.w3.org/2000/svg">
<path d="M1 27V23.15C1 22.325 1.13636 21.6375 1.54545 20.95C1.95455 20.2625 2.5 19.85 3.18182 19.4375C4.54545 18.75 6.04545 18.2 7.54545 17.7875C9.04545 17.375 10.4091 17.2375 11.9091 17.2375C13.4091 17.2375 14.9091 17.375 16.2727 17.7875C17.7727 18.2 19.1364 18.6125 20.5 19.4375C21.1818 19.7125 21.7273 20.2625 22.1364 20.95C22.5455 21.6375 22.6818 22.325 22.6818 23.15V27H1ZM25.5455 27V22.875C25.5455 21.9125 25.2727 20.95 24.7273 19.9875C24.1818 19.025 23.3636 18.2 22.4091 17.65C23.6364 17.7875 24.5909 18.0625 25.6818 18.3375C26.7727 18.6125 27.7273 19.025 28.5455 19.575C29.3636 19.9875 30.0455 20.5375 30.4545 21.0875C30.8636 21.6375 31 22.1875 31 22.875V27H25.5455ZM11.9091 16C10.4091 16 9.18182 15.45 8.09091 14.35C7 13.25 6.45455 12.0125 6.45455 10.5C6.45455 8.9875 7 7.75 8.09091 6.65C9.18182 5.55 10.4091 5 11.9091 5C13.4091 5 14.6364 5.55 15.7273 6.65C16.8182 7.75 17.3636 8.9875 17.3636 10.5C17.3636 12.0125 16.8182 13.25 15.7273 14.35C14.6364 15.45 13.4091 16 11.9091 16ZM25.5455 10.5C25.5455 12.0125 25 13.25 23.9091 14.35C22.8182 15.45 21.5909 16 20.0909 16C19.8182 16 19.5455 16 19.1364 15.8625C18.7273 15.8625 18.4545 15.725 18.1818 15.725C18.7273 15.0375 19.2727 14.2125 19.5455 13.25C19.8182 12.425 20.0909 11.4625 20.0909 10.5C20.0909 9.5375 19.9545 8.575 19.5455 7.75C19.2727 6.7875 18.7273 6.1 18.1818 5.275C18.4545 5.1375 18.8636 5.1375 19.1364 5C19.4091 5 19.8182 5 20.0909 5C21.5909 5 22.8182 5.55 23.9091 6.65C25 7.75 25.5455 8.9875 25.5455 10.5ZM3.72727 24.25H20.0909V23.15C20.0909 22.875 20.0909 22.6 19.9545 22.4625C19.8182 22.1875 19.6818 22.05 19.4091 21.9125C18.1818 21.225 16.9545 20.8125 15.7273 20.5375C14.5 20.2625 13.1364 20.125 11.9091 20.125C10.6818 20.125 9.31818 20.2625 8.09091 20.5375C6.86364 20.8125 5.63636 21.3625 4.40909 21.9125C4.13636 22.05 4 22.1875 3.86364 22.4625C3.72727 22.7375 3.72727 22.875 3.72727 23.15V24.25ZM11.9091 13.25C12.7273 13.25 13.2727 12.975 13.8182 12.425C14.3636 11.875 14.6364 11.325 14.6364 10.5C14.6364 9.675 14.3636 9.125 13.8182 8.575C13.2727 8.025 12.7273 7.75 11.9091 7.75C11.0909 7.75 10.5455 8.025 10 8.575C9.45455 9.125 9.18182 9.675 9.18182 10.5C9.18182 11.325 9.45455 11.875 10 12.425C10.5455 12.975 11.0909 13.25 11.9091 13.25Z" fill="#00C39A"/>
</svg>
