<svg width="32" height="32" viewBox="0 0 32 32" fill="none" xmlns="http://www.w3.org/2000/svg">
<path d="M24.4819 18.025L18.0388 24.46C17.8586 24.64 17.6558 24.775 17.4305 24.865C17.2053 24.955 16.98 25 16.7547 25C16.5294 25 16.3041 24.955 16.0788 24.865C15.8536 24.775 15.6508 24.64 15.4706 24.46L7.51815 16.5175C7.35294 16.3525 7.22528 16.1613 7.13517 15.9438C7.04506 15.7263 7 15.4975 7 15.2575V8.8C7 8.305 7.17647 7.88125 7.52941 7.52875C7.88235 7.17625 8.30663 7 8.80225 7H15.2678C15.5081 7 15.7409 7.04875 15.9662 7.14625C16.1915 7.24375 16.3867 7.375 16.5519 7.54L24.4819 15.4825C24.6621 15.6625 24.7935 15.865 24.8761 16.09C24.9587 16.315 25 16.54 25 16.765C25 16.99 24.9587 17.2113 24.8761 17.4288C24.7935 17.6463 24.6621 17.845 24.4819 18.025ZM16.7547 23.2L23.1977 16.765L15.2453 8.8H8.80225V15.235L16.7547 23.2ZM11.0551 12.4C11.4305 12.4 11.7497 12.2688 12.0125 12.0063C12.2753 11.7438 12.4068 11.425 12.4068 11.05C12.4068 10.675 12.2753 10.3563 12.0125 10.0938C11.7497 9.83125 11.4305 9.7 11.0551 9.7C10.6796 9.7 10.3605 9.83125 10.0976 10.0938C9.83479 10.3563 9.70338 10.675 9.70338 11.05C9.70338 11.425 9.83479 11.7438 10.0976 12.0063C10.3605 12.2688 10.6796 12.4 11.0551 12.4Z" fill="#FF9505"/>
</svg>
