<svg width="32" height="32" viewBox="0 0 32 32" fill="none" xmlns="http://www.w3.org/2000/svg">
<path d="M29.2222 19.1111L19.1111 29.2222C18.8 29.5333 18.4889 29.6889 18.1778 29.8444C17.8667 30 17.5556 30 17.2444 30C16.9333 30 16.4667 30 16.1556 29.8444C15.8444 29.6889 15.5333 29.5333 15.2222 29.2222L2.77778 16.9333C2.46667 16.6222 2.31111 16.3111 2.15556 16C2 15.5333 2 15.2222 2 14.9111V4.8C2 4.02222 2.31111 3.4 2.77778 2.77778C3.24444 2.15556 4.02222 2 4.8 2H14.9111C15.2222 2 15.6889 2 16 2.15556C16.3111 2.31111 16.6222 2.46667 16.9333 2.77778L29.2222 15.0667C29.5333 15.3778 29.6889 15.6889 29.8444 16C30 16.3111 30 16.7778 30 17.0889C30 17.4 30 17.7111 29.8444 18.1778C29.6889 18.4889 29.5333 18.8 29.2222 19.1111ZM17.2444 27.2L27.2 17.2444L14.7556 4.8H4.8V14.7556L17.2444 27.2ZM8.37778 10.4C9 10.4 9.46667 10.2444 9.93333 9.77778C10.4 9.31111 10.5556 8.84444 10.5556 8.22222C10.5556 7.6 10.4 7.13333 9.93333 6.66667C9.46667 6.2 9 6.04445 8.37778 6.04445C7.75556 6.04445 7.28889 6.2 6.82222 6.66667C6.35556 7.13333 6.2 7.6 6.2 8.22222C6.2 8.84444 6.35556 9.31111 6.82222 9.77778C7.28889 10.2444 7.75556 10.4 8.37778 10.4Z" fill="#F96A4D"/>
</svg>
