<svg width="32" height="32" viewBox="0 0 32 32" fill="none" xmlns="http://www.w3.org/2000/svg">
<path d="M16.1392 16C14.6076 16 13.3544 15.45 12.2405 14.35C11.1266 13.25 10.5696 12.0125 10.5696 10.5C10.5696 8.9875 11.1266 7.75 12.2405 6.65C13.3544 5.55 14.6076 5 16.1392 5C17.6709 5 18.9241 5.55 20.038 6.65C21.1519 7.75 21.7089 8.9875 21.7089 10.5C21.7089 12.0125 21.1519 13.25 20.038 14.35C18.9241 15.45 17.6709 16 16.1392 16ZM5 27V23.15C5 22.325 5.13924 21.6375 5.55696 20.95C5.97468 20.2625 6.53165 19.85 7.22785 19.4375C8.62025 18.75 10.1519 18.2 11.5443 17.7875C13.0759 17.375 14.4684 17.2375 16 17.2375C17.5316 17.2375 19.0633 17.375 20.4557 17.7875C21.9873 18.2 23.3797 18.6125 24.7722 19.4375C25.4684 19.7125 26.0253 20.2625 26.443 20.95C26.8608 21.6375 27 22.325 27 23.15V27H5ZM7.78481 24.25H24.4937V23.15C24.4937 22.875 24.4937 22.6 24.3544 22.4625C24.2152 22.1875 24.076 22.05 23.7975 21.9125C22.5443 21.225 21.2911 20.8125 20.038 20.5375C18.7848 20.2625 17.3924 20.125 16.1392 20.125C14.8861 20.125 13.4937 20.2625 12.2405 20.5375C10.9873 20.8125 9.73418 21.3625 8.48101 21.9125C8.34177 22.05 8.06329 22.1875 7.92405 22.4625C7.78481 22.7375 7.78481 22.875 7.78481 23.15V24.25ZM16.1392 13.25C16.8354 13.25 17.5316 12.975 18.0886 12.425C18.6456 11.875 18.9241 11.325 18.9241 10.5C18.9241 9.675 18.6456 9.125 18.0886 8.575C17.5316 8.025 16.8354 7.75 16.1392 7.75C15.3038 7.75 14.7468 8.025 14.1899 8.575C13.6329 9.125 13.3544 9.675 13.3544 10.5C13.3544 11.325 13.6329 11.875 14.1899 12.425C14.7468 12.975 15.3038 13.25 16.1392 13.25Z" fill="#80ED99"/>
</svg>
