<svg width="32" height="32" viewBox="0 0 32 32" fill="none" xmlns="http://www.w3.org/2000/svg">
<rect width="32" height="32" fill="white"/>
<path d="M15 16C13.9 16 12.9583 15.6083 12.175 14.825C11.3917 14.0417 11 13.1 11 12C11 10.9 11.3917 9.95833 12.175 9.175C12.9583 8.39167 13.9 8 15 8C16.1 8 17.0417 8.39167 17.825 9.175C18.6083 9.95833 19 10.9 19 12C19 13.1 18.6083 14.0417 17.825 14.825C17.0417 15.6083 16.1 16 15 16ZM7 24V21.2C7 20.6333 7.14583 20.1125 7.4375 19.6375C7.72917 19.1625 8.11667 18.8 8.6 18.55C9.63333 18.0333 10.6833 17.6458 11.75 17.3875C12.8167 17.1292 13.9 17 15 17C16.1 17 17.1833 17.1292 18.25 17.3875C19.3167 17.6458 20.3667 18.0333 21.4 18.55C21.8833 18.8 22.2708 19.1625 22.5625 19.6375C22.8542 20.1125 23 20.6333 23 21.2V24H7ZM9 22H21V21.2C21 21.0167 20.9542 20.85 20.8625 20.7C20.7708 20.55 20.65 20.4333 20.5 20.35C19.6 19.9 18.6917 19.5625 17.775 19.3375C16.8583 19.1125 15.9333 19 15 19C14.0667 19 13.1417 19.1125 12.225 19.3375C11.3083 19.5625 10.4 19.9 9.5 20.35C9.35 20.4333 9.22917 20.55 9.1375 20.7C9.04583 20.85 9 21.0167 9 21.2V22ZM15 14C15.55 14 16.0208 13.8042 16.4125 13.4125C16.8042 13.0208 17 12.55 17 12C17 11.45 16.8042 10.9792 16.4125 10.5875C16.0208 10.1958 15.55 10 15 10C14.45 10 13.9792 10.1958 13.5875 10.5875C13.1958 10.9792 13 11.45 13 12C13 12.55 13.1958 13.0208 13.5875 13.4125C13.9792 13.8042 14.45 14 15 14Z" fill="#80ED99"/>
</svg>
