<?xml version="1.0" encoding="utf-8"?>
<!-- Generator: Adobe Illustrator 28.3.0, SVG Export Plug-In . SVG Version: 6.00 Build 0)  -->
<svg version="1.1" id="Layer_1" xmlns="http://www.w3.org/2000/svg" xmlns:xlink="http://www.w3.org/1999/xlink" x="0px" y="0px"
	 viewBox="0 0 364.3 52.4" style="enable-background:new 0 0 364.3 52.4;" xml:space="preserve">
<style type="text/css">
	.st0{fill:#FFFFFF;}
	.st1{fill:#CCD8E1;}
	.st2{clip-path:url(#SVGID_00000175291458312823557530000013733234122958756789_);}
	.st3{fill:#8F69C4;}
	.st4{fill:#017AFF;}
	.st5{fill:none;stroke:#FFFFFF;stroke-width:2.0155;stroke-miterlimit:10;}
	.st6{fill:#4C90E7;}
	.st7{opacity:0.3;fill:#4C90E7;}
	.st8{opacity:0.69;}
	.st9{fill-opacity:0.6;}
	.st10{fill:#F3F5F8;}
	.st11{fill:#CEDAE5;}
	.st12{fill:#253364;}
	.st13{fill:#007AE8;}
	.st14{fill:#6B68FF;}
	.st15{fill:none;stroke:#F3F4F7;stroke-width:2.3;stroke-miterlimit:10;}
	.st16{fill:none;stroke:#FFFFFF;stroke-width:2;stroke-miterlimit:10;}
	.st17{fill:#F4F5F8;}
	.st18{opacity:0.93;fill:url(#SVGID_00000049933301315020012590000001589465980124827064_);}
	.st19{fill:url(#SVGID_00000039812629552247586940000014665942012535600527_);}
	.st20{fill:none;stroke:#FFFFFF;stroke-width:3;stroke-miterlimit:10;}
	.st21{fill:#F97D37;}
	.st22{opacity:0.53;fill:url(#SVGID_00000147919533009914812040000013342466945960456843_);}
	.st23{opacity:0.2;fill:url(#SVGID_00000163756178826083118210000010751366809876568500_);}
	.st24{fill:#377BF3;}
	.st25{fill:none;stroke:#CEDAE5;stroke-width:6;stroke-miterlimit:10;}
	.st26{fill:#F9934E;}
	.st27{fill:url(#SVGID_00000103243252759238699810000003276992587122782895_);}
	.st28{fill:#5EC1D0;}
	.st29{clip-path:url(#SVGID_00000101095535210171124220000007299403957542316981_);}
	.st30{opacity:0.51;fill:url(#SVGID_00000029724798405982458080000016808503269819722884_);}
	.st31{fill:#027AFF;}
	.st32{fill:none;stroke:#FFFFFF;stroke-width:7;stroke-miterlimit:10;}
	.st33{fill:url(#SVGID_00000168804875487865629640000016185594341147571603_);}
	.st34{fill:none;stroke:#FFFFFF;stroke-width:2;stroke-linecap:round;stroke-linejoin:round;stroke-miterlimit:10;}
	.st35{fill:#F0F2F5;}
	.st36{fill:#0080FF;}
	.st37{opacity:0.53;fill:url(#SVGID_00000000935682096584499670000010671956560181973896_);}
	.st38{opacity:0.53;fill:url(#SVGID_00000084532490662157792160000015264704643175581314_);}
	.st39{clip-path:url(#SVGID_00000050652281936130417480000014776654808515952804_);}
	.st40{fill:#1D2A3C;}
	.st41{fill:#5176F6;}
	.st42{filter:url(#Adobe_OpacityMaskFilter);}
	.st43{fill:url(#SVGID_00000058580212518143986940000008390713114015084985_);}
	
		.st44{mask:url(#SVGID_00000039100842785092660530000006269143899360768674_);fill:url(#SVGID_00000147186135909603591000000016409188411723179176_);}
	.st45{filter:url(#Adobe_OpacityMaskFilter_00000112606718206917205430000000331641977117298823_);}
	.st46{fill:url(#SVGID_00000021117850162976997800000005666806660269204378_);}
	
		.st47{mask:url(#SVGID_00000071546811848036423780000015948647941000787133_);fill:url(#SVGID_00000044863338437411021450000016267854279150895794_);}
	.st48{filter:url(#Adobe_OpacityMaskFilter_00000143587868650876307080000017410402269550603440_);}
	.st49{fill:url(#SVGID_00000183251089562996797920000007956518490266446468_);}
	
		.st50{mask:url(#SVGID_00000098924026007750535140000017974037326246114480_);fill:url(#SVGID_00000101804521024631020090000012291794668599737279_);}
	.st51{fill:#806BD0;}
	.st52{fill:#4F99D0;}
	.st53{fill:#65A6A4;}
	.st54{fill:none;stroke:#1D2A3C;stroke-width:2.5;stroke-miterlimit:10;}
	.st55{fill:#1A1A1A;}
</style>
<g>
	<g>
		<path class="st40" d="M20.9,15.6c-0.3,0-0.5,0.3-0.5,0.6v23.4c0,0.3-0.3,0.6-0.6,0.6h-1.9c-0.3,0-0.5-0.2-0.5-0.5V16.2
			c0-0.3-0.3-0.6-0.6-0.6H10c-0.3,0-0.6-0.3-0.6-0.5v-1.8c0-0.3,0.3-0.6,0.6-0.6h17.7c0.3,0,0.5,0.2,0.5,0.5v1.8
			c0,0.3-0.2,0.5-0.5,0.5H20.9z"/>
		<path class="st40" d="M50.4,40.1c-0.3,0-0.5-0.2-0.5-0.5v-12c0-0.3-0.3-0.6-0.6-0.6H35.5c-0.3,0-0.6,0.3-0.6,0.6v12
			c0,0.3-0.3,0.6-0.6,0.6h-1.9c-0.3,0-0.6-0.3-0.6-0.6V13.3c0-0.3,0.3-0.6,0.6-0.6h1.9c0.3,0,0.6,0.3,0.6,0.6v10.4
			c0,0.3,0.3,0.6,0.6,0.6h13.7c0.3,0,0.6-0.3,0.6-0.6V13.3c0-0.3,0.3-0.6,0.6-0.6h1.9c0.3,0,0.6,0.3,0.6,0.6v26.3
			c0,0.3-0.3,0.6-0.6,0.6H50.4z"/>
		<path class="st40" d="M58.4,40.1c-0.2,0-0.5-0.3-0.5-0.6V13.3c0-0.3,0.3-0.6,0.5-0.6h14c0.3,0,0.6,0.3,0.6,0.6v1.8
			c0,0.3-0.3,0.5-0.6,0.5H61.6c-0.3,0-0.6,0.3-0.6,0.6v8.1c0,0.3,0.2,0.5,0.5,0.5h9.9c0.3,0,0.5,0.2,0.5,0.5v1.8
			c0,0.3-0.2,0.5-0.5,0.5h-9.8c-0.3,0-0.6,0.3-0.6,0.6v8.4c0,0.3,0.3,0.5,0.6,0.5h11.2c0.3,0,0.6,0.3,0.6,0.6v1.7
			c0,0.3-0.3,0.6-0.6,0.6H58.4z"/>
		<path class="st40" d="M98.6,40.3L81.1,20c-0.2-0.2-0.4-0.2-0.4,0.1v19.5c0,0.3-0.3,0.6-0.6,0.6h-1.9c-0.3,0-0.6-0.3-0.6-0.6V12.7
			c0-0.4,0.1-0.6,0.3-0.6c0.3,0,0.4,0.1,0.7,0.5l17.4,20.2c0.2,0.2,0.4,0.2,0.4-0.1V13.3c0-0.3,0.3-0.6,0.6-0.6H99
			c0.3,0,0.6,0.3,0.6,0.6v26.8c0,0.5-0.1,0.6-0.3,0.6C99.1,40.7,98.9,40.6,98.6,40.3z"/>
		<path class="st40" d="M105.1,40.1c-0.2,0-0.5-0.3-0.5-0.6V13.3c0-0.3,0.3-0.6,0.5-0.6h14c0.3,0,0.6,0.3,0.6,0.6v1.8
			c0,0.3-0.3,0.5-0.6,0.5h-10.8c-0.3,0-0.6,0.3-0.6,0.6v8.1c0,0.3,0.2,0.5,0.5,0.5h9.9c0.3,0,0.5,0.2,0.5,0.5v1.8
			c0,0.3-0.2,0.5-0.5,0.5h-9.8c-0.3,0-0.6,0.3-0.6,0.6v8.4c0,0.3,0.3,0.5,0.6,0.5h11.2c0.3,0,0.6,0.3,0.6,0.6v1.7
			c0,0.3-0.3,0.6-0.6,0.6H105.1z"/>
		<path class="st40" d="M150.3,40.2c-0.1,0.3-0.3,0.5-0.5,0.5c-0.2,0-0.4-0.2-0.5-0.5l-7.8-20.3c-0.1-0.3-0.3-0.3-0.4,0l-8,20.3
			c-0.1,0.4-0.3,0.5-0.5,0.5s-0.4-0.1-0.5-0.5l-9.1-27c-0.1-0.3,0.1-0.5,0.4-0.5h2.2c0.3,0,0.6,0.3,0.7,0.5l6.4,19.3
			c0.1,0.3,0.3,0.3,0.4,0l7.8-19.8c0.1-0.4,0.3-0.6,0.5-0.6c0.2,0,0.3,0.2,0.5,0.6l7.8,19.7c0.1,0.3,0.3,0.3,0.4,0l6.2-19.2
			c0.1-0.3,0.4-0.5,0.7-0.5h2c0.3,0,0.5,0.3,0.5,0.5L150.3,40.2z"/>
		<path class="st40" d="M163.6,40.1c-0.3,0-0.6-0.3-0.6-0.6V13.3c0-0.3,0.3-0.6,0.6-0.6h1.9c0.3,0,0.6,0.3,0.6,0.6v23.4
			c0,0.3,0.3,0.5,0.6,0.5h11.2c0.3,0,0.6,0.3,0.6,0.6v1.7c0,0.3-0.3,0.6-0.6,0.6H163.6z"/>
		<path class="st40" d="M180.3,26.5c0-8.1,6.7-14.7,14.9-14.3c7.3,0.3,13.4,6.3,13.7,13.6c0.4,8.2-6.2,15-14.3,15
			C186.6,40.7,180.3,34.4,180.3,26.5z M183.5,26.5c0,7.2,6.4,12.9,14,11c4.1-1,7.2-4.5,7.9-8.7c1.3-7.4-3.9-13.6-10.9-13.6
			C188.3,15.2,183.5,20.1,183.5,26.5z"/>
		<path class="st40" d="M212.5,26.5c0-7.8,6.2-14.2,13.9-14.3c7.7-0.2,14.3,5.9,14.7,13.6c0.4,8.2-6.2,15-14.3,15
			C218.9,40.7,212.5,34.4,212.5,26.5z M215.8,26.5c0,7.2,6.4,12.9,14,11c4.1-1,7.2-4.5,7.9-8.7c1.3-7.4-3.8-13.6-10.9-13.6
			C220.6,15.2,215.8,20.1,215.8,26.5z"/>
		<path class="st40" d="M263.4,40.1c-0.4,0-0.8-0.1-1.1-0.4l-13.4-13c-0.3-0.3-0.4-0.1-0.4,0.1v12.6c0,0.3-0.3,0.6-0.6,0.6h-1.9
			c-0.3,0-0.6-0.3-0.6-0.6V13.3c0-0.3,0.3-0.6,0.6-0.6h1.9c0.3,0,0.6,0.3,0.6,0.6v11.8c0,0.3,0.1,0.4,0.4,0.1l12.4-12.2
			c0.3-0.3,0.7-0.4,1-0.4h2.7c0.3,0,0.5,0.3,0.3,0.5l-12.5,12.4c-0.4,0.4-0.4,0.4,0,0.8l13.8,13.1c0.2,0.2,0.1,0.6-0.3,0.6H263.4z"
			/>
	</g>
	<path class="st36" d="M337.4,42.5h-42.6c-9,0-16.3-7.3-16.3-16.3v0c0-9,7.3-16.3,16.3-16.3h42.6c9,0,16.3,7.3,16.3,16.3v0
		C353.7,35.2,346.4,42.5,337.4,42.5z"/>
	<g>
		<path class="st0" d="M308.2,20.7c-0.6-0.7-1.4-1.2-2.4-1.6c-1-0.4-2.1-0.6-3.4-0.6h-2.7h-0.4h-1.8c-0.1,0-0.2,0.1-0.2,0.2v14.1
			c0,0.1,0.1,0.2,0.2,0.2h1.8h0.4h2.7c1.3,0,2.4-0.2,3.4-0.6c1-0.4,1.8-1,2.4-1.6c0.6-0.7,1.1-1.4,1.4-2.3c0.3-0.8,0.5-1.7,0.5-2.5
			v-0.4c0-0.9-0.2-1.8-0.5-2.6C309.3,22.1,308.8,21.4,308.2,20.7z M307.4,27.8c-0.2,0.6-0.6,1.2-1,1.6s-1,0.8-1.6,1.1
			s-1.3,0.4-2.1,0.4h-2.7c-0.1,0-0.2-0.1-0.2-0.2v-9.8c0-0.1,0.1-0.2,0.2-0.2h2.7c0.8,0,1.5,0.1,2.1,0.4c0.6,0.2,1.2,0.6,1.6,1
			c0.4,0.4,0.8,1,1,1.6s0.3,1.3,0.3,2.1C307.7,26.5,307.6,27.2,307.4,27.8z"/>
		<path class="st0" d="M315.4,26.7h5.4c0.1,0,0.2-0.1,0.2-0.2v-1.7c0-0.1-0.1-0.2-0.2-0.2h-5.4c-0.1,0-0.2-0.1-0.2-0.2v-3.6
			c0-0.1,0.1-0.2,0.2-0.2h5.8c0.1,0,0.2-0.1,0.2-0.2v-1.7c0-0.1-0.1-0.2-0.2-0.2h-6h-0.4H313c-0.1,0-0.2,0.1-0.2,0.2v14
			c0,0.1,0.1,0.2,0.2,0.2h1.7h0.4h6.1c0.1,0,0.2-0.1,0.2-0.2v-1.7c0-0.1-0.1-0.2-0.2-0.2h-5.9c-0.1,0-0.2-0.1-0.2-0.2v-3.8
			C315.2,26.8,315.3,26.7,315.4,26.7z"/>
		<path class="st0" d="M334,18.6c-0.1,0-0.2,0.1-0.2,0.1L330.2,31h-0.7l-3.9-12.2c0-0.1-0.1-0.1-0.2-0.1h-2c-0.1,0-0.2,0.1-0.2,0.3
			l4.6,14c0,0.1,0.1,0.1,0.2,0.1h3.7c0.1,0,0.2-0.1,0.2-0.1l4.3-14c0-0.1-0.1-0.3-0.2-0.3H334z"/>
	</g>
</g>
</svg>
